<svg class="diagram-root" style="background: #f5f6f6" xmlns="http://www.w3.org/2000/svg" xmlns:xlink="http://www.w3.org/1999/xlink"><style>.diagram-root { font-family: "Helvetica Neue", sans-serif; font-size: 12px; } .t { overflow: visible; } .t-bg { y: 40; fill: #fff;   } .th { fill: #005aa0;   } .tht { fill: #fff; font-size: 14px;  } .tf { fill: #323c46; overflow: visible; } .tf.pk { fill: #005aa0; font-weight: bold; } .tf.fk { font-weight: bold; } .ty { fill: #adb1b5; font-weight: normal; text-anchor: end; } .r { fill: transparent; stroke: #c3c3c3; stroke-width: 1; } .l { stroke: 1; } .i { fill: #c2c7ce; stroke: #c2c7ce; } .i.ix { fill: #afb3b6; stroke: #000; } .fa { fill: transparent; overflow: visible; } .fa .bg.hover { fill: #f7f7f7; } .c { cy: 12; r: 4; stroke: #d2d2dc; fill: #d2d2dc; } .hr { fill: transparent; stroke: #323c46; stroke-opacity: 0.035; stroke-width: 13; } .dc { stroke: #fa5a3c; fill: #fa5a3c; } .x { stroke: white; stroke-width: 1; } .hl .th { fill: #1b9bff; } .hl .tht {  } .fhl .bg { fill: #e7f4ff; } .fhls .bg {  } .r.hl { stroke: #1b9bff; } .dim { opacity: 0.25; }</style><g class="drawing-wrapper" transform="translate(524.7323809523809, 579.8866666666667) scale(1,1)"><g class="rs"><path d="M -79.1 -466.20000000000005 m -1, 0 a 1,1 0 1,0 2,0 a 1,1 0 1,0 -2,0 M -79.1 -466.20000000000005 m -0.5, 0 a 0.5,0.5 0 1,0 1,0 a 0.5,0.5 0 1,0 -1,0  M-79.1 -466.20000000000005 L-79.1 -466.20000000000005 -67.1 -466.20000000000005 M -79.1 -460.20000000000005 m -1, 0 a 1,1 0 1,0 2,0 a 1,1 0 1,0 -2,0 M -79.1 -460.20000000000005 m -0.5, 0 a 0.5,0.5 0 1,0 1,0 a 0.5,0.5 0 1,0 -1,0  M-79.1 -460.20000000000005 L-79.1 -460.20000000000005 -72.1 -466.20000000000005 -79.1 -472.20000000000005 M -79.1 -472.20000000000005 m -1, 0 a 1,1 0 1,0 2,0 a 1,1 0 1,0 -2,0 M -79.1 -472.20000000000005 m -0.5, 0 a 0.5,0.5 0 1,0 1,0 a 0.5,0.5 0 1,0 -1,0  M-67.1 -466.20000000000005 Q 20.45 -466.20000000000005, 107.99 -474.37 T 283.0714285714286 -482.5485714285717 M 295.0714285714286 -482.5485714285717 m -1, 0 a 1,1 0 1,0 2,0 a 1,1 0 1,0 -2,0 M 295.0714285714286 -482.5485714285717 m -0.5, 0 a 0.5,0.5 0 1,0 1,0 a 0.5,0.5 0 1,0 -1,0  M295.0714285714286 -482.5485714285717 L295.0714285714286 -482.5485714285717 283.0714285714286 -482.5485714285717 M289.0714285714286 -476.5485714285717 L289.0714285714286 -476.5485714285717 289.0714285714286 -488.5485714285717" id="h1309620017" class="r"></path><path d="M -230.1 -416.20000000000005 m -1, 0 a 1,1 0 1,0 2,0 a 1,1 0 1,0 -2,0 M -230.1 -416.20000000000005 m -0.5, 0 a 0.5,0.5 0 1,0 1,0 a 0.5,0.5 0 1,0 -1,0  M-230.1 -416.20000000000005 L-230.1 -416.20000000000005 -242.1 -416.20000000000005 M -230.1 -410.20000000000005 m -1, 0 a 1,1 0 1,0 2,0 a 1,1 0 1,0 -2,0 M -230.1 -410.20000000000005 m -0.5, 0 a 0.5,0.5 0 1,0 1,0 a 0.5,0.5 0 1,0 -1,0  M-230.1 -410.20000000000005 L-230.1 -410.20000000000005 -237.1 -416.20000000000005 -230.1 -422.20000000000005 M -230.1 -422.20000000000005 m -1, 0 a 1,1 0 1,0 2,0 a 1,1 0 1,0 -2,0 M -230.1 -422.20000000000005 m -0.5, 0 a 0.5,0.5 0 1,0 1,0 a 0.5,0.5 0 1,0 -1,0  M-242.1 -416.20000000000005 C -275.7734695363765 -416.20000000000005, -277.4154695363764 -315.216666666667, -239.3633333333335 -315.216666666667 M -227.3633333333335 -315.216666666667 m -1, 0 a 1,1 0 1,0 2,0 a 1,1 0 1,0 -2,0 M -227.3633333333335 -315.216666666667 m -0.5, 0 a 0.5,0.5 0 1,0 1,0 a 0.5,0.5 0 1,0 -1,0  M-227.3633333333335 -315.216666666667 L-227.3633333333335 -315.216666666667 -239.3633333333335 -315.216666666667 M-233.3633333333335 -309.216666666667 L-233.3633333333335 -309.216666666667 -233.3633333333335 -321.216666666667" id="h1362570610" class="r"></path><path d="M -355.03 -467.88666666666666 m -1, 0 a 1,1 0 1,0 2,0 a 1,1 0 1,0 -2,0 M -355.03 -467.88666666666666 m -0.5, 0 a 0.5,0.5 0 1,0 1,0 a 0.5,0.5 0 1,0 -1,0  M-355.03 -467.88666666666666 L-355.03 -467.88666666666666 -343.03 -467.88666666666666 M -355.03 -461.88666666666666 m -1, 0 a 1,1 0 1,0 2,0 a 1,1 0 1,0 -2,0 M -355.03 -461.88666666666666 m -0.5, 0 a 0.5,0.5 0 1,0 1,0 a 0.5,0.5 0 1,0 -1,0  M-355.03 -461.88666666666666 L-355.03 -461.88666666666666 -348.03 -467.88666666666666 -355.03 -473.88666666666666 M -355.03 -473.88666666666666 m -1, 0 a 1,1 0 1,0 2,0 a 1,1 0 1,0 -2,0 M -355.03 -473.88666666666666 m -0.5, 0 a 0.5,0.5 0 1,0 1,0 a 0.5,0.5 0 1,0 -1,0  M-343.03 -467.88666666666666 Q -317.79 -467.88666666666666, -292.56 -479.54 T -242.1 -491.20000000000005 M -230.1 -491.20000000000005 m -1, 0 a 1,1 0 1,0 2,0 a 1,1 0 1,0 -2,0 M -230.1 -491.20000000000005 m -0.5, 0 a 0.5,0.5 0 1,0 1,0 a 0.5,0.5 0 1,0 -1,0  M-230.1 -491.20000000000005 L-230.1 -491.20000000000005 -242.1 -491.20000000000005 M-236.1 -485.20000000000005 L-236.1 -485.20000000000005 -236.1 -497.20000000000005" id="h353541086" class="r"></path><path d="M -501.03000000000003 -442.88666666666666 m -1, 0 a 1,1 0 1,0 2,0 a 1,1 0 1,0 -2,0 M -501.03000000000003 -442.88666666666666 m -0.5, 0 a 0.5,0.5 0 1,0 1,0 a 0.5,0.5 0 1,0 -1,0  M-501.03000000000003 -442.88666666666666 L-501.03000000000003 -442.88666666666666 -513.03 -442.88666666666666 M -501.03000000000003 -436.88666666666666 m -1, 0 a 1,1 0 1,0 2,0 a 1,1 0 1,0 -2,0 M -501.03000000000003 -436.88666666666666 m -0.5, 0 a 0.5,0.5 0 1,0 1,0 a 0.5,0.5 0 1,0 -1,0  M-501.03000000000003 -436.88666666666666 L-501.03000000000003 -436.88666666666666 -508.03000000000003 -442.88666666666666 -501.03000000000003 -448.88666666666666 M -501.03000000000003 -448.88666666666666 m -1, 0 a 1,1 0 1,0 2,0 a 1,1 0 1,0 -2,0 M -501.03000000000003 -448.88666666666666 m -0.5, 0 a 0.5,0.5 0 1,0 1,0 a 0.5,0.5 0 1,0 -1,0  M-513.03 -442.88666666666666 C -559.048163463366 -442.88666666666666, -558.0267348919374 -313.014761904762, -514.7323809523809 -313.014761904762 M -502.7323809523809 -313.014761904762 m -1, 0 a 1,1 0 1,0 2,0 a 1,1 0 1,0 -2,0 M -502.7323809523809 -313.014761904762 m -0.5, 0 a 0.5,0.5 0 1,0 1,0 a 0.5,0.5 0 1,0 -1,0  M-502.7323809523809 -313.014761904762 L-502.7323809523809 -313.014761904762 -514.7323809523809 -313.014761904762 M-508.7323809523809 -307.014761904762 L-508.7323809523809 -307.014761904762 -508.7323809523809 -319.014761904762" id="h3385049336" class="r"></path><path d="M -277.06 -58.04238095238097 m -1, 0 a 1,1 0 1,0 2,0 a 1,1 0 1,0 -2,0 M -277.06 -58.04238095238097 m -0.5, 0 a 0.5,0.5 0 1,0 1,0 a 0.5,0.5 0 1,0 -1,0  M-277.06 -58.04238095238097 L-277.06 -58.04238095238097 -265.06 -58.04238095238097 M -277.06 -52.04238095238097 m -1, 0 a 1,1 0 1,0 2,0 a 1,1 0 1,0 -2,0 M -277.06 -52.04238095238097 m -0.5, 0 a 0.5,0.5 0 1,0 1,0 a 0.5,0.5 0 1,0 -1,0  M-277.06 -52.04238095238097 L-277.06 -52.04238095238097 -270.06 -58.04238095238097 -277.06 -64.04238095238097 M -277.06 -64.04238095238097 m -1, 0 a 1,1 0 1,0 2,0 a 1,1 0 1,0 -2,0 M -277.06 -64.04238095238097 m -0.5, 0 a 0.5,0.5 0 1,0 1,0 a 0.5,0.5 0 1,0 -1,0  M-265.06 -58.04238095238097 Q -128.02 -58.04238095238097, 9.01 -270.3 T 283.0714285714286 -482.5485714285717 M 295.0714285714286 -482.5485714285717 m -1, 0 a 1,1 0 1,0 2,0 a 1,1 0 1,0 -2,0 M 295.0714285714286 -482.5485714285717 m -0.5, 0 a 0.5,0.5 0 1,0 1,0 a 0.5,0.5 0 1,0 -1,0  M295.0714285714286 -482.5485714285717 L295.0714285714286 -482.5485714285717 283.0714285714286 -482.5485714285717 M289.0714285714286 -476.5485714285717 L289.0714285714286 -476.5485714285717 289.0714285714286 -488.5485714285717" id="h2335015169" class="r"></path><path d="M -496.0557142857141 -33.04238095238097 m -1, 0 a 1,1 0 1,0 2,0 a 1,1 0 1,0 -2,0 M -496.0557142857141 -33.04238095238097 m -0.5, 0 a 0.5,0.5 0 1,0 1,0 a 0.5,0.5 0 1,0 -1,0  M-496.0557142857141 -33.04238095238097 L-496.0557142857141 -33.04238095238097 -508.0557142857141 -33.04238095238097 M -496.0557142857141 -27.042380952380967 m -1, 0 a 1,1 0 1,0 2,0 a 1,1 0 1,0 -2,0 M -496.0557142857141 -27.042380952380967 m -0.5, 0 a 0.5,0.5 0 1,0 1,0 a 0.5,0.5 0 1,0 -1,0  M-496.0557142857141 -27.042380952380967 L-496.0557142857141 -27.042380952380967 -503.0557142857141 -33.04238095238097 -496.0557142857141 -39.04238095238097 M -496.0557142857141 -39.04238095238097 m -1, 0 a 1,1 0 1,0 2,0 a 1,1 0 1,0 -2,0 M -496.0557142857141 -39.04238095238097 m -0.5, 0 a 0.5,0.5 0 1,0 1,0 a 0.5,0.5 0 1,0 -1,0  M-508.0557142857141 -33.04238095238097 C -568.738380952381 -33.04238095238097, -564.7323809523809 -313.014761904762, -514.7323809523809 -313.014761904762 M -502.7323809523809 -313.014761904762 m -1, 0 a 1,1 0 1,0 2,0 a 1,1 0 1,0 -2,0 M -502.7323809523809 -313.014761904762 m -0.5, 0 a 0.5,0.5 0 1,0 1,0 a 0.5,0.5 0 1,0 -1,0  M-502.7323809523809 -313.014761904762 L-502.7323809523809 -313.014761904762 -514.7323809523809 -313.014761904762 M-508.7323809523809 -307.014761904762 L-508.7323809523809 -307.014761904762 -508.7323809523809 -319.014761904762" id="h3936997188" class="r"></path><path d="M 297.5595238095238 -256.761904761905 m -1, 0 a 1,1 0 1,0 2,0 a 1,1 0 1,0 -2,0 M 297.5595238095238 -256.761904761905 m -0.5, 0 a 0.5,0.5 0 1,0 1,0 a 0.5,0.5 0 1,0 -1,0  M297.5595238095238 -256.761904761905 L297.5595238095238 -256.761904761905 285.5595238095238 -256.761904761905 M 297.5595238095238 -250.761904761905 m -1, 0 a 1,1 0 1,0 2,0 a 1,1 0 1,0 -2,0 M 297.5595238095238 -250.761904761905 m -0.5, 0 a 0.5,0.5 0 1,0 1,0 a 0.5,0.5 0 1,0 -1,0  M297.5595238095238 -250.761904761905 L297.5595238095238 -250.761904761905 290.5595238095238 -256.761904761905 297.5595238095238 -262.761904761905 M 297.5595238095238 -262.761904761905 m -1, 0 a 1,1 0 1,0 2,0 a 1,1 0 1,0 -2,0 M 297.5595238095238 -262.761904761905 m -0.5, 0 a 0.5,0.5 0 1,0 1,0 a 0.5,0.5 0 1,0 -1,0  M285.5595238095238 -256.761904761905 C 231.5785714285715 -256.761904761905, 233.0714285714286 -482.5485714285717, 283.0714285714286 -482.5485714285717 M 295.0714285714286 -482.5485714285717 m -1, 0 a 1,1 0 1,0 2,0 a 1,1 0 1,0 -2,0 M 295.0714285714286 -482.5485714285717 m -0.5, 0 a 0.5,0.5 0 1,0 1,0 a 0.5,0.5 0 1,0 -1,0  M295.0714285714286 -482.5485714285717 L295.0714285714286 -482.5485714285717 283.0714285714286 -482.5485714285717 M289.0714285714286 -476.5485714285717 L289.0714285714286 -476.5485714285717 289.0714285714286 -488.5485714285717" id="h3347136820" class="r"></path><path d="M 290.05952380952374 111.38095238095232 m -1, 0 a 1,1 0 1,0 2,0 a 1,1 0 1,0 -2,0 M 290.05952380952374 111.38095238095232 m -0.5, 0 a 0.5,0.5 0 1,0 1,0 a 0.5,0.5 0 1,0 -1,0  M290.05952380952374 111.38095238095232 L290.05952380952374 111.38095238095232 278.05952380952374 111.38095238095232 M 290.05952380952374 117.38095238095232 m -1, 0 a 1,1 0 1,0 2,0 a 1,1 0 1,0 -2,0 M 290.05952380952374 117.38095238095232 m -0.5, 0 a 0.5,0.5 0 1,0 1,0 a 0.5,0.5 0 1,0 -1,0  M290.05952380952374 117.38095238095232 L290.05952380952374 117.38095238095232 283.05952380952374 111.38095238095232 290.05952380952374 105.38095238095232 M 290.05952380952374 105.38095238095232 m -1, 0 a 1,1 0 1,0 2,0 a 1,1 0 1,0 -2,0 M 290.05952380952374 105.38095238095232 m -0.5, 0 a 0.5,0.5 0 1,0 1,0 a 0.5,0.5 0 1,0 -1,0  M278.05952380952374 111.38095238095232 C 228.05952380952374 111.38095238095232, 226.65780952380965 -66.60428571428582, 280.3957142857139 -66.60428571428582 M 292.3957142857139 -66.60428571428582 m -1, 0 a 1,1 0 1,0 2,0 a 1,1 0 1,0 -2,0 M 292.3957142857139 -66.60428571428582 m -0.5, 0 a 0.5,0.5 0 1,0 1,0 a 0.5,0.5 0 1,0 -1,0  M292.3957142857139 -66.60428571428582 L292.3957142857139 -66.60428571428582 280.3957142857139 -66.60428571428582 M286.3957142857139 -60.60428571428582 L286.3957142857139 -60.60428571428582 286.3957142857139 -72.60428571428582" id="h637471334" class="r"></path></g><g class="hrs"></g><g class="ts"><svg width="151" height="150" x="-230.1" y="-548.2" id="h4176899315" class="t"><rect height="40" width="151" class="th"></rect><text x="13" y="25" class="tht">Order</text><rect height="110" width="151" class="t-bg" y="40"></rect><text x="13" y="61" class="tf pk">OrderID<tspan x="138" class="ty">int</tspan></text><path d="M7,14A2,2 0 0,1 5,12A2,2 0 0,1 7,10A2,2 0 0,1 9,12A2,2 0 0,1 7,14M12.65,10C11.83,7.67 9.61,6 7, 6A6, 6 0 0, 0 1, 12A6, 6 0 0, 0 7, 18C9.61, 18 11.83, 16.33 12.65, 14H17V18H21V14H23V10H12.65Z" class="i pk" transform="translate(105, 48) scale(0.65)"></path><text x="13" y="86" class="tf fk">CustomerID<tspan x="138" class="ty">int</tspan></text><text x="13" y="111" class="tf">TotalAmount<tspan x="138" class="ty">money</tspan></text><text x="13" y="136" class="tf fk">OrderStatusID<tspan x="138" class="ty">int</tspan></text></svg><svg width="173" height="200" x="295.0714285714286" y="-539.5485714285717" id="h1304670300" class="t"><rect height="40" width="173" class="th"></rect><text x="13" y="25" class="tht">Customer</text><rect height="160" width="173" class="t-bg" y="40"></rect><text x="13" y="61" class="tf pk">CustomerID<tspan x="160" class="ty">int</tspan></text><path d="M7,14A2,2 0 0,1 5,12A2,2 0 0,1 7,10A2,2 0 0,1 9,12A2,2 0 0,1 7,14M12.65,10C11.83,7.67 9.61,6 7, 6A6, 6 0 0, 0 1, 12A6, 6 0 0, 0 7, 18C9.61, 18 11.83, 16.33 12.65, 14H17V18H21V14H23V10H12.65Z" class="i pk" transform="translate(127, 48) scale(0.65)"></path><text x="13" y="86" class="tf">Name<tspan x="160" class="ty">nvarchar(max)</tspan></text><path d="M814.545 581.818v-23.273H535.273v-93.09h-46.546v93.09H209.455v139.637H256V605.09h232.727v93.09h46.546v-93.09H768v93.09h46.545V581.819zM674.91 465.455H349.091V139.636h325.818v325.819zM325.82 884.364H139.635V698.182h186.182v186.182z m279.272 0H418.909V698.182h186.182v186.182z m279.273 0H698.182V698.182h186.182v186.182zM395.636 418.909h232.728V186.182H395.636v232.727zM186.182 837.82h93.09v-93.092h-93.09v93.091z m279.273 0h93.09v-93.092h-93.09v93.091z m279.272 0h93.091v-93.092h-93.09v93.091z" class="i ix" transform="translate(67, 75) scale(0.014)"></path><text x="13" y="111" class="tf">E-mail<tspan x="160" class="ty">nvarchar(255)</tspan></text><text x="13" y="136" class="tf">Address<tspan x="160" class="ty">nvarchar(max)</tspan></text><text x="13" y="161" class="tf">Postcode<tspan x="160" class="ty">varchar(10)</tspan></text><text x="13" y="186" class="tf">City<tspan x="160" class="ty">nvarchar(max)</tspan></text></svg><svg width="146" height="150" x="-501.03000000000003" y="-549.8866666666667" id="h1789807113" class="t"><rect height="40" width="146" class="th"></rect><text x="13" y="25" class="tht">OrderLine</text><rect height="110" width="146" class="t-bg" y="40"></rect><text x="13" y="61" class="tf pk">OrderLineID<tspan x="133" class="ty">int</tspan></text><path d="M7,14A2,2 0 0,1 5,12A2,2 0 0,1 7,10A2,2 0 0,1 9,12A2,2 0 0,1 7,14M12.65,10C11.83,7.67 9.61,6 7, 6A6, 6 0 0, 0 1, 12A6, 6 0 0, 0 7, 18C9.61, 18 11.83, 16.33 12.65, 14H17V18H21V14H23V10H12.65Z" class="i pk" transform="translate(100, 48) scale(0.65)"></path><text x="13" y="86" class="tf fk">OrderID<tspan x="133" class="ty">int</tspan></text><text x="13" y="111" class="tf fk">ProductID<tspan x="133" class="ty">int</tspan></text><text x="13" y="136" class="tf">Quantity<tspan x="133" class="ty">int</tspan></text></svg><svg width="175" height="175" x="-502.7323809523809" y="-370.014761904762" id="h3119304962" class="t"><rect height="40" width="175" class="th"></rect><text x="13" y="25" class="tht">Product</text><rect height="135" width="175" class="t-bg" y="40"></rect><text x="13" y="61" class="tf pk">ProductID<tspan x="162" class="ty">int</tspan></text><path d="M7,14A2,2 0 0,1 5,12A2,2 0 0,1 7,10A2,2 0 0,1 9,12A2,2 0 0,1 7,14M12.65,10C11.83,7.67 9.61,6 7, 6A6, 6 0 0, 0 1, 12A6, 6 0 0, 0 7, 18C9.61, 18 11.83, 16.33 12.65, 14H17V18H21V14H23V10H12.65Z" class="i pk" transform="translate(129, 48) scale(0.65)"></path><text x="13" y="86" class="tf">Name<tspan x="162" class="ty">varchar(200)</tspan></text><path d="M22,18V22H18V19H15V16H12L9.74,13.74C9.19,13.91 8.61,14 8,14A6,6 0 0,1 2,8A6,6 0 0,1 8,2A6,6 0 0,1 14,8C14,8.61 13.91, 9.19 13.74, 9.74L22, 18M7, 5A2, 2 0 0, 0 5, 7A2, 2 0 0, 0 7, 9A2, 2 0 0, 0 9, 7A2, 2 0 0, 0 7, 5Z" class="i uq" transform="translate(77, 75.5) scale(0.5)"></path><text x="13" y="111" class="tf">Price<tspan x="162" class="ty">money</tspan></text><text x="13" y="136" class="tf">ImagePath<tspan x="162" class="ty">varchar(255)</tspan></text><text x="13" y="161" class="tf">InStock<tspan x="162" class="ty">int</tspan></text></svg><svg width="157" height="100" x="-227.3633333333335" y="-372.216666666667" id="h579050706" class="t"><rect height="40" width="157" class="th"></rect><text x="13" y="25" class="tht">OrderStatus</text><rect height="60" width="157" class="t-bg" y="40"></rect><text x="13" y="61" class="tf pk">OrderStatusID<tspan x="144" class="ty">int</tspan></text><path d="M7,14A2,2 0 0,1 5,12A2,2 0 0,1 7,10A2,2 0 0,1 9,12A2,2 0 0,1 7,14M12.65,10C11.83,7.67 9.61,6 7, 6A6, 6 0 0, 0 1, 12A6, 6 0 0, 0 7, 18C9.61, 18 11.83, 16.33 12.65, 14H17V18H21V14H23V10H12.65Z" class="i pk" transform="translate(111, 48) scale(0.65)"></path><text x="13" y="86" class="tf">Name<tspan x="144" class="ty">string</tspan></text><path d="M22,18V22H18V19H15V16H12L9.74,13.74C9.19,13.91 8.61,14 8,14A6,6 0 0,1 2,8A6,6 0 0,1 8,2A6,6 0 0,1 14,8C14,8.61 13.91, 9.19 13.74, 9.74L22, 18M7, 5A2, 2 0 0, 0 5, 7A2, 2 0 0, 0 7, 9A2, 2 0 0, 0 9, 7A2, 2 0 0, 0 7, 5Z" class="i uq" transform="translate(97, 75.5) scale(0.5)"></path></svg><svg width="219" height="200" x="-496.0557142857141" y="-115.04238095238097" id="h160511972" class="t"><rect height="40" width="219" class="th"></rect><text x="13" y="25" class="tht">Review</text><rect height="160" width="219" class="t-bg" y="40"></rect><text x="13" y="61" class="tf pk">CustomerID<tspan x="206" class="ty">int</tspan></text><path d="M7,14A2,2 0 0,1 5,12A2,2 0 0,1 7,10A2,2 0 0,1 9,12A2,2 0 0,1 7,14M12.65,10C11.83,7.67 9.61,6 7, 6A6, 6 0 0, 0 1, 12A6, 6 0 0, 0 7, 18C9.61, 18 11.83, 16.33 12.65, 14H17V18H21V14H23V10H12.65Z" class="i pk" transform="translate(173, 48) scale(0.65)"></path><text x="13" y="86" class="tf pk">ProductID<tspan x="206" class="ty">int</tspan></text><path d="M7,14A2,2 0 0,1 5,12A2,2 0 0,1 7,10A2,2 0 0,1 9,12A2,2 0 0,1 7,14M12.65,10C11.83,7.67 9.61,6 7, 6A6, 6 0 0, 0 1, 12A6, 6 0 0, 0 7, 18C9.61, 18 11.83, 16.33 12.65, 14H17V18H21V14H23V10H12.65Z" class="i pk" transform="translate(173, 73) scale(0.65)"></path><text x="13" y="111" class="tf">Rating<tspan x="206" class="ty">int?</tspan></text><text x="13" y="136" class="tf">ReviewText<tspan x="206" class="ty">nvarchar(max)?</tspan></text><text x="13" y="161" class="tf">ReviewDate<tspan x="206" class="ty">datetime?</tspan></text><text x="13" y="186" class="tf">ReviewHeader<tspan x="206" class="ty">nvarchar(max)?</tspan></text></svg><svg width="173" height="150" x="292.3957142857139" y="-123.60428571428582" id="h267946556" class="t"><rect height="40" width="173" class="th"></rect><text x="13" y="25" class="tht">Manager</text><rect height="110" width="173" class="t-bg" y="40"></rect><text x="13" y="61" class="tf pk">ManagerID<tspan x="160" class="ty">int</tspan></text><path d="M7,14A2,2 0 0,1 5,12A2,2 0 0,1 7,10A2,2 0 0,1 9,12A2,2 0 0,1 7,14M12.65,10C11.83,7.67 9.61,6 7, 6A6, 6 0 0, 0 1, 12A6, 6 0 0, 0 7, 18C9.61, 18 11.83, 16.33 12.65, 14H17V18H21V14H23V10H12.65Z" class="i pk" transform="translate(127, 48) scale(0.65)"></path><text x="13" y="86" class="tf">IsAdmin<tspan x="160" class="ty">bool</tspan></text><text x="13" y="111" class="tf">Name<tspan x="160" class="ty">nvarchar(max)</tspan></text><path d="M814.545 581.818v-23.273H535.273v-93.09h-46.546v93.09H209.455v139.637H256V605.09h232.727v93.09h46.546v-93.09H768v93.09h46.545V581.819zM674.91 465.455H349.091V139.636h325.818v325.819zM325.82 884.364H139.635V698.182h186.182v186.182z m279.272 0H418.909V698.182h186.182v186.182z m279.273 0H698.182V698.182h186.182v186.182zM395.636 418.909h232.728V186.182H395.636v232.727zM186.182 837.82h93.09v-93.092h-93.09v93.091z m279.273 0h93.09v-93.092h-93.09v93.091z m279.272 0h93.091v-93.092h-93.09v93.091z" class="i ix" transform="translate(67, 100) scale(0.014)"></path><text x="13" y="136" class="tf">E-mail<tspan x="160" class="ty">nvarchar(255)</tspan></text></svg><svg width="201" height="100" x="290.05952380952374" y="54.38095238095232" id="h507923123" class="t"><rect height="40" width="201" class="th"></rect><text x="13" y="25" class="tht">ManagerPasswords</text><rect height="60" width="201" class="t-bg" y="40"></rect><text x="13" y="61" class="tf pk">ManagerID<tspan x="188" class="ty">int</tspan></text><path d="M7,14A2,2 0 0,1 5,12A2,2 0 0,1 7,10A2,2 0 0,1 9,12A2,2 0 0,1 7,14M12.65,10C11.83,7.67 9.61,6 7, 6A6, 6 0 0, 0 1, 12A6, 6 0 0, 0 7, 18C9.61, 18 11.83, 16.33 12.65, 14H17V18H21V14H23V10H12.65Z" class="i pk" transform="translate(155, 48) scale(0.65)"></path><text x="13" y="86" class="tf">HashedPassword<tspan x="188" class="ty">binary(60)</tspan></text></svg><svg width="201" height="100" x="297.5595238095238" y="-313.761904761905" id="h547834589" class="t"><rect height="40" width="201" class="th"></rect><text x="13" y="25" class="tht">CustomerPasswords</text><rect height="60" width="201" class="t-bg" y="40"></rect><text x="13" y="61" class="tf pk">CustomerID<tspan x="188" class="ty">int</tspan></text><path d="M7,14A2,2 0 0,1 5,12A2,2 0 0,1 7,10A2,2 0 0,1 9,12A2,2 0 0,1 7,14M12.65,10C11.83,7.67 9.61,6 7, 6A6, 6 0 0, 0 1, 12A6, 6 0 0, 0 7, 18C9.61, 18 11.83, 16.33 12.65, 14H17V18H21V14H23V10H12.65Z" class="i pk" transform="translate(155, 48) scale(0.65)"></path><text x="13" y="86" class="tf">HashedPassword<tspan x="188" class="ty">binary(60)</tspan></text></svg></g></g><text class="qdbd-link" x="10" y="20">www.quickdatabasediagrams.com</text></svg>